<svg xmlns="http://www.w3.org/2000/svg" width="17.574" height="20.086" viewBox="0 0 17.574 20.086"><defs><style>.a{fill:#2196f3;}.b{fill:#1976d2;}.c{fill:#fafafa;}</style></defs><g transform="translate(-32.021)"><path class="a" d="M49.3,2.529,40.929.018a.4.4,0,0,0-.24,0L32.32,2.529a.418.418,0,0,0-.3.4v9.206c0,3.7,5.642,6.991,8.663,7.932a.419.419,0,0,0,.251,0c3.018-.941,8.66-4.232,8.66-7.932V2.93A.418.418,0,0,0,49.3,2.529Z" transform="translate(0)"/><circle class="b" cx="4.603" cy="4.603" r="4.603" transform="translate(36.205 5.022)"/><path class="c" d="M183.562,196.089a.418.418,0,0,1-.3-.122l-1.674-1.674a.418.418,0,0,1,.592-.592l1.378,1.378,3.051-3.051a.418.418,0,0,1,.6.581l-.01.01-3.347,3.347A.418.418,0,0,1,183.562,196.089Z" transform="translate(-143.591 -184.372)"/></g></svg>